<?xml version="1.0" encoding="UTF-8"?>
<svg width="18px" height="18px" viewBox="0 0 18 18" version="1.1" xmlns="http://www.w3.org/2000/svg" xmlns:xlink="http://www.w3.org/1999/xlink">
    <!-- Generator: sketchtool 50.2 (55047) - http://www.bohemiancoding.com/sketch -->
    <title>35A92D1C-038F-4B06-BACA-CD136CE3F158</title>
    <desc>Created with sketchtool.</desc>
    <defs></defs>
    <g id="Frontend-Test" stroke="none" stroke-width="1" fill="none" fill-rule="evenodd">
        <g id="5" transform="translate(-450.000000, -169.000000)">
            <path d="M459,185 C455.134007,185 452,181.865993 452,178 C452,174.134007 455.134007,171 459,171 C462.865993,171 466,174.134007 466,178 C466,181.865993 462.865993,185 459,185 Z M459,184 C462.313708,184 465,181.313708 465,178 C465,174.686292 462.313708,172 459,172 C455.686292,172 453,174.686292 453,178 C453,181.313708 455.686292,184 459,184 Z M456.352258,177.939078 L457.729125,179.305908 L461.658657,175.634644 C461.860438,175.446126 462.176837,175.456877 462.365356,175.658657 C462.553874,175.860438 462.543123,176.176837 462.341343,176.365356 L458.059949,180.365356 C457.863516,180.548878 457.55713,180.544235 457.366348,180.354844 L455.647742,178.648767 C455.451767,178.454221 455.450609,178.13764 455.645156,177.941665 C455.839702,177.74569 456.156282,177.744532 456.352258,177.939078 Z" id="Combined-Shape" fill="#16C98D"></path>
            <rect id="Rectangle-13" opacity="0.234148551" x="450" y="169" width="18" height="18"></rect>
        </g>
    </g>
</svg>