<?xml version="1.0" encoding="UTF-8"?>
<svg width="18px" height="18px" viewBox="0 0 18 18" version="1.1" xmlns="http://www.w3.org/2000/svg" xmlns:xlink="http://www.w3.org/1999/xlink">
    <!-- Generator: sketchtool 50.2 (55047) - http://www.bohemiancoding.com/sketch -->
    <title>3EED21E1-6EA8-4079-A926-4E56868BCA07</title>
    <desc>Created with sketchtool.</desc>
    <defs></defs>
    <g id="Frontend-Test" stroke="none" stroke-width="1" fill="none" fill-rule="evenodd">
        <g id="5" transform="translate(-451.000000, -89.000000)">
            <rect id="Rectangle-13" opacity="0.234148551" x="451" y="89" width="18" height="18"></rect>
            <path d="M460,105 C456.134007,105 453,101.865993 453,98 C453,94.1340068 456.134007,91 460,91 C463.865993,91 467,94.1340068 467,98 C467,101.865993 463.865993,105 460,105 Z M460,104 C463.313708,104 466,101.313708 466,98 C466,94.6862915 463.313708,92 460,92 C456.686292,92 454,94.6862915 454,98 C454,101.313708 456.686292,104 460,104 Z M459.404,99.604 C459.364,99.3159986 459.374,99.0520012 459.434,98.812 C459.494,98.5719988 459.581999,98.352001 459.698,98.152 C459.814001,97.951999 459.945999,97.7660009 460.094,97.594 C460.242001,97.4219991 460.381999,97.2540008 460.514,97.09 C460.646001,96.9259992 460.756,96.7640008 460.844,96.604 C460.932,96.4439992 460.976,96.2720009 460.976,96.088 C460.976,95.7999986 460.890001,95.5680009 460.718,95.392 C460.545999,95.2159991 460.308002,95.128 460.004,95.128 C459.755999,95.128 459.532001,95.1839994 459.332,95.296 C459.131999,95.4080006 458.944001,95.559999 458.768,95.752 L458,95.044 C458.264001,94.7399985 458.577998,94.490001 458.942,94.294 C459.306002,94.097999 459.715998,94 460.172,94 C460.484002,94 460.771999,94.0419996 461.036,94.126 C461.300001,94.2100004 461.525999,94.3359992 461.714,94.504 C461.902001,94.6720008 462.049999,94.8799988 462.158,95.128 C462.266001,95.3760012 462.32,95.6639984 462.32,95.992 C462.32,96.2480013 462.274,96.477999 462.182,96.682 C462.09,96.886001 461.976001,97.0799991 461.84,97.264 C461.703999,97.4480009 461.558001,97.6239992 461.402,97.792 C461.245999,97.9600008 461.106001,98.1359991 460.982,98.32 C460.857999,98.5040009 460.758,98.699999 460.682,98.908 C460.606,99.116001 460.584,99.3479987 460.616,99.604 L459.404,99.604 Z M460.016,102.328 C459.759999,102.328 459.548001,102.240001 459.38,102.064 C459.211999,101.887999 459.128,101.664001 459.128,101.392 C459.128,101.119999 459.211999,100.896001 459.38,100.72 C459.548001,100.543999 459.759999,100.456 460.016,100.456 C460.272001,100.456 460.485999,100.543999 460.658,100.72 C460.830001,100.896001 460.916,101.119999 460.916,101.392 C460.916,101.664001 460.830001,101.887999 460.658,102.064 C460.485999,102.240001 460.272001,102.328 460.016,102.328 Z" id="Combined-Shape" fill="#68717C"></path>
        </g>
    </g>
</svg>