<?xml version="1.0" encoding="UTF-8"?>
<svg width="18px" height="18px" viewBox="0 0 18 18" version="1.1" xmlns="http://www.w3.org/2000/svg" xmlns:xlink="http://www.w3.org/1999/xlink">
    <!-- Generator: sketchtool 50.2 (55047) - http://www.bohemiancoding.com/sketch -->
    <title>460D603C-99D2-465D-B18E-E61ADBBBD785</title>
    <desc>Created with sketchtool.</desc>
    <defs></defs>
    <g id="Frontend-Test" stroke="none" stroke-width="1" fill="none" fill-rule="evenodd">
        <g id="5" transform="translate(-450.000000, -250.000000)">
            <rect id="Rectangle-13-Copy" opacity="0.234148551" x="450" y="250" width="18" height="18"></rect>
            <path d="M459,266 C455.134007,266 452,262.865993 452,259 C452,255.134007 455.134007,252 459,252 C462.865993,252 466,255.134007 466,259 C466,262.865993 462.865993,266 459,266 Z M459,265 C462.313708,265 465,262.313708 465,259 C465,255.686292 462.313708,253 459,253 C455.686292,253 453,255.686292 453,259 C453,262.313708 455.686292,265 459,265 Z M458.632012,260.46 L458.440012,256.368 L458.404012,255 L459.796012,255 L459.748012,256.368 L459.556012,260.46 L458.632012,260.46 Z M459.100012,263.184 C458.844011,263.184 458.630013,263.096001 458.458012,262.92 C458.286011,262.743999 458.200012,262.520001 458.200012,262.248 C458.200012,261.975999 458.286011,261.752001 458.458012,261.576 C458.630013,261.399999 458.844011,261.312 459.100012,261.312 C459.356013,261.312 459.568011,261.399999 459.736012,261.576 C459.904013,261.752001 459.988012,261.975999 459.988012,262.248 C459.988012,262.520001 459.904013,262.743999 459.736012,262.92 C459.568011,263.096001 459.356013,263.184 459.100012,263.184 Z" id="Combined-Shape-Copy" fill="#FA5E5B"></path>
        </g>
    </g>
</svg>